<svg xmlns="http://www.w3.org/2000/svg" viewBox="0 0 600 400" width="600" height="400">
  <rect width="600" height="400" fill="#FAF6EF"/>
  <path d="M0 60 C150 30 450 30 600 60" fill="none" stroke="#C8A04A" stroke-width="3" opacity="0.5"/>
  <g fill="#E8B23A" opacity="0.85">
    <circle cx="60" cy="58" r="8"/><circle cx="160" cy="46" r="8"/><circle cx="300" cy="42" r="8"/>
    <circle cx="440" cy="46" r="8"/><circle cx="540" cy="58" r="8"/>
  </g>
  <g fill="#C8A04A" opacity="0.5">
    <circle cx="210" cy="180" r="40"/>
    <path d="M150 360 C150 270 180 240 210 240 C240 240 270 270 270 360 Z"/>
    <circle cx="390" cy="180" r="40"/>
    <path d="M330 360 C330 270 360 240 390 240 C420 240 450 270 450 360 Z"/>
  </g>
  <path d="M270 300 C290 285 310 285 330 300" fill="none" stroke="#7A1E1E" stroke-width="4" stroke-linecap="round" opacity="0.5"/>
  <text x="300" y="392" text-anchor="middle" font-family="Georgia, serif" font-style="italic" font-size="15" fill="#7A1E1E" opacity="0.45">two families unite — illustration placeholder</text>
</svg>
