<svg xmlns="http://www.w3.org/2000/svg" viewBox="0 0 200 200" width="200" height="200">
  <defs>
    <g id="mari">
      <circle cx="8" cy="0" r="4" fill="#E8B23A"/>
      <circle cx="5.7" cy="5.7" r="4" fill="#E8B23A"/>
      <circle cx="0" cy="8" r="4" fill="#E8B23A"/>
      <circle cx="-5.7" cy="5.7" r="4" fill="#E8B23A"/>
      <circle cx="-8" cy="0" r="4" fill="#E8B23A"/>
      <circle cx="-5.7" cy="-5.7" r="4" fill="#E8B23A"/>
      <circle cx="0" cy="-8" r="4" fill="#E8B23A"/>
      <circle cx="5.7" cy="-5.7" r="4" fill="#E8B23A"/>
      <circle cx="0" cy="0" r="6" fill="#C8A04A"/>
    </g>
  </defs>
  <g fill="none" stroke="#C8A04A" stroke-width="2.5" stroke-linecap="round">
    <path d="M4 70 C4 30 30 4 70 4"/>
    <path d="M4 110 C40 95 70 60 95 4" opacity="0.7"/>
    <path d="M30 12 C50 18 58 30 60 50" opacity="0.6"/>
  </g>
  <g fill="#D8B56A" opacity="0.85">
    <path d="M40 40 C55 35 70 40 78 55 C62 58 47 53 40 40 Z"/>
    <path d="M18 60 C25 75 22 92 10 102 C6 86 8 70 18 60 Z"/>
  </g>
  <use href="#mari" x="18" y="18"/>
  <use href="#mari" x="64" y="20" transform="scale(0.8)" style="transform-origin:64px 20px"/>
  <use href="#mari" x="22" y="66" transform="scale(0.85)" style="transform-origin:22px 66px"/>
</svg>
