<svg xmlns="http://www.w3.org/2000/svg" viewBox="0 0 600 800" width="600" height="800">
  <rect width="600" height="800" fill="#FAF6EF"/>
  <g fill="none" stroke="#C8A04A" stroke-width="5" opacity="0.45">
    <line x1="120" y1="180" x2="120" y2="780"/>
    <line x1="480" y1="180" x2="480" y2="780"/>
    <path d="M120 180 C120 90 230 70 300 70 C370 70 480 90 480 180"/>
  </g>
  <g fill="#E8B23A" opacity="0.75">
    <circle cx="120" cy="200" r="10"/><circle cx="120" cy="260" r="10"/><circle cx="120" cy="320" r="10"/>
    <circle cx="480" cy="200" r="10"/><circle cx="480" cy="260" r="10"/><circle cx="480" cy="320" r="10"/>
    <circle cx="180" cy="110" r="10"/><circle cx="300" cy="78" r="10"/><circle cx="420" cy="110" r="10"/>
  </g>
  <path d="M180 120 C240 150 360 150 420 120" fill="none" stroke="#D8B56A" stroke-width="3" opacity="0.7"/>
  <text x="300" y="500" text-anchor="middle" font-family="Georgia, serif" font-style="italic" font-size="20" fill="#7A1E1E" opacity="0.3">mandap &amp; marigold backdrop — placeholder</text>
</svg>
